<svg id="Layer_1" data-name="Layer 1" xmlns="http://www.w3.org/2000/svg" viewBox="0 0 467.74 990.65"><defs><style>.cls-1{font-size:30.11px;}.cls-1,.cls-11,.cls-12,.cls-4,.cls-5,.cls-6,.cls-7{fill:#010101;}.cls-1,.cls-12,.cls-6,.cls-7{font-family:Montserrat-Regular, Montserrat;}.cls-2,.cls-3{fill:none;stroke:#010101;stroke-miterlimit:10;}.cls-2{stroke-width:5px;}.cls-5{font-size:30px;}.cls-11,.cls-5{font-family:Montserrat-Bold, Montserrat;font-weight:700;}.cls-6{font-size:25px;}.cls-7{font-size:38px;}.cls-8{font-size:22px;}.cls-13,.cls-8{fill:#231f20;font-family:Montserrat-SemiBold, Montserrat;font-weight:600;}.cls-9{letter-spacing:-0.01em;}.cls-10{letter-spacing:-0.01em;}.cls-11{font-size:35px;}.cls-12{font-size:31.8px;}.cls-13{font-size:18.84px;}.cls-14{letter-spacing:-0.01em;}.cls-15{letter-spacing:-0.01em;}.cls-16{letter-spacing:0em;}</style></defs><text class="cls-1" transform="translate(62.74 329.53) rotate(57.38)">O</text><text class="cls-1" transform="matrix(0.64, 0.77, -0.77, 0.64, 77.48, 352.15)">R</text><text class="cls-1" transform="translate(92.6 369.96) rotate(43.09)">A</text><text class="cls-1" transform="translate(109.64 385.88) rotate(35.8)">N</text><text class="cls-1" transform="translate(131.01 401.1) rotate(28.22)">G</text><text class="cls-1" transform="translate(153.03 412.7) rotate(21.29)">E</text><text class="cls-1" transform="translate(172.85 420.13) rotate(16.8)"> </text><text class="cls-1" transform="translate(181.03 422.59) rotate(14.1)">|</text><text class="cls-1" transform="translate(190.22 424.88) rotate(11.43)"> </text><text class="cls-1" transform="translate(199 426.9) rotate(6.7)">R</text><text class="cls-1" transform="translate(222.37 429.34) rotate(0.93)">E</text><text class="cls-1" transform="translate(243.96 429.57) rotate(-6.95)">D</text><text class="cls-1" transform="translate(269.77 425.98) rotate(-12.17)"> </text><text class="cls-1" transform="translate(278.08 424.19) rotate(-14.85)">|</text><text class="cls-1" transform="translate(287.27 421.72) rotate(-17.54)"> </text><text class="cls-1" transform="matrix(0.92, -0.4, 0.4, 0.92, 296.25, 419.37)">M</text><text class="cls-1" transform="matrix(0.85, -0.52, 0.52, 0.85, 324.2, 406.85)">A</text><text class="cls-1" transform="translate(343.95 394.67) rotate(-38.31)">R</text><text class="cls-1" transform="matrix(0.7, -0.72, 0.72, 0.7, 362.41, 380.09)">O</text><text class="cls-1" transform="translate(381.24 360.58) rotate(-53.71)">O</text><text class="cls-1" transform="translate(397.17 338.63) rotate(-61.61)">N</text><circle class="cls-2" cx="232.64" cy="235.06" r="210.66"/><circle class="cls-3" cx="233.87" cy="233.87" r="233.37"/><text x="0.5" y="-9.51"/><path class="cls-4" d="M238.54,251.45l.09.23c.37,1,.74,2,1.07,3h0a14.45,14.45,0,0,0,4.27,6,18.65,18.65,0,0,0,2.07,1.53h0l.1.06h0a17,17,0,0,0,5.18,2.22,13,13,0,0,1,5.24,2.09c1.66,1.29,2.47,3.13,1.24,5.76l0,.05a40.93,40.93,0,0,0-1.91,4.46.58.58,0,0,0,.14.39.45.45,0,0,0,.17.11.23.23,0,0,0,.14,0,.94.94,0,0,0,.42-.43,30,30,0,0,0,3.6-8.28c.59-2.69.38-5.34-1.53-7.45-5.2-5.76-8.67-7.1-14.37-8.65h-.07l-1.78-.48c-1.15-.31-2.39-.64-3.74-1a.27.27,0,0,0-.28.08.28.28,0,0,0-.06.29ZM210,179a4.59,4.59,0,1,1-3.23,1.34A4.56,4.56,0,0,1,210,179Zm1.65,2.93a2.33,2.33,0,0,0-3.29,3.29,2.31,2.31,0,0,0,3.29,0,2.31,2.31,0,0,0,.68-1.64A2.34,2.34,0,0,0,211.61,182Zm-16.7,8.59c6.5,3.21,11.24,7.84,15.45,12.63a.27.27,0,0,0,.35,0,.26.26,0,0,0,.12-.33,45.8,45.8,0,0,1-2.25-15.47,1.12,1.12,0,1,1,2.24,0c-.18,16.52,6.77,24.34,12.73,31.06l.54.61a.3.3,0,0,0,.33.07.28.28,0,0,0,.16-.3,18.3,18.3,0,0,1,.41-7.15,29,29,0,0,1,4.65-9.42.28.28,0,0,0,0-.34.28.28,0,0,0-.32-.09c-1.57.61-3.09.44-5.67.17-1.16-.13-2.55-.28-4.29-.38a1.12,1.12,0,0,1-.7-1.94h0c2.67-2.55,5.17-4.57,7.87-5.64a11.66,11.66,0,0,1,3.1-.78.27.27,0,0,0,.24-.2.28.28,0,0,0-.1-.3c-7.67-5.57-8.51-8-11.42-16.28-.8-2.3-1.76-5.06-3.09-8.48a1.11,1.11,0,0,1,.64-1.45,1.09,1.09,0,0,1,1.09.16h0c5.37,3.89,9.94,7.67,13.41,12.2a33.29,33.29,0,0,1,4.23,7.14.29.29,0,0,0,.31.17.3.3,0,0,0,.23-.27c.25-7.37,1.87-9.72,6.37-16.25,1.36-2,3-4.38,5-7.51a1.12,1.12,0,0,1,2.07.67h0c0,6.62-.33,12.52-1.93,18a33.39,33.39,0,0,1-4.45,9.5.27.27,0,0,0,0,.34.28.28,0,0,0,.34.07c7.91-4.08,10.53-3.75,19-2.71,2.47.31,5.44.67,9,1a1.11,1.11,0,0,1,1,1.21,1.13,1.13,0,0,1-.59.9h0c-5.88,3.1-11.31,5.52-16.91,6.64a33.46,33.46,0,0,1-12.28.18.3.3,0,0,0-.31.15.31.31,0,0,0,.07.34,14.82,14.82,0,0,1,3.85,5.28c1.58,3.56,2.07,7.86,2.22,12.83a1.12,1.12,0,0,1-1.86.88c-1.8-1.58-3.29-2.76-4.53-3.73-5.07-4-6.26-5-6.35-13.81a.27.27,0,0,0-.19-.26.28.28,0,0,0-.31.08c-3.71,4.46-6.23,8.49-7.26,12.51s-.52,8.34,1.93,13.11l0,0A19.48,19.48,0,0,1,232,232.1a.28.28,0,0,0,.2.21.26.26,0,0,0,.28-.07c.45-.46.93-.92,1.42-1.39l.27-.25c1.57-1.5,1.22-3.76.84-6.24-.12-.82-.25-1.66-.33-2.52h0a1.13,1.13,0,0,1,2-.77c3.12,4.25,4.77,6.65,5,9s-1.19,4.35-4.12,7.59a2,2,0,0,0-.39.67c-.43,1.21,0,3,.87,4.79a18.33,18.33,0,0,0,4,5.37,9.65,9.65,0,0,0,3.05,2h0c6.09,1.66,9.8,3.07,15.42,9.31,2.49,2.75,2.79,6.08,2.06,9.43a32.12,32.12,0,0,1-3.87,8.94,3,3,0,0,1-1.73,1.45,2.47,2.47,0,0,1-1.45,0,2.63,2.63,0,0,1-1.14-.74,2.78,2.78,0,0,1-.72-2c0-.85,1.34-3.62,2.11-5.3l0,0a2.25,2.25,0,0,0-.58-3.05,10.85,10.85,0,0,0-4.31-1.66c-.31-.06-.67-.16-1.08-.28a.29.29,0,0,0-.29.08.3.3,0,0,0-.05.3c.14.32.27.64.38,1a32.23,32.23,0,0,1,1.63,8.83c.21,3.63,1.54,4.36,2.86,5.08a6.09,6.09,0,0,1,3.08,2.88c1.25,2.57.82,7.11.45,10.9-.11,1.19-.22,2.29-.26,3.22a3.61,3.61,0,0,1-.69,2.06,2.62,2.62,0,0,1-1.26.88,2.45,2.45,0,0,1-2.75-1,8.61,8.61,0,0,1-.75-2c-.23-.78-.48-1.76-.7-2.63-.46-1.78-1.08-2.05-2.4-2.61h0c-3.16-1.33-3.08-4.9-3-8.05v-.16c0-1.28-1.21-2.24-2.7-3.4l-.88-.7a.29.29,0,0,0-.33,0,.29.29,0,0,0-.13.3,17.09,17.09,0,0,1-.44,9.88c-.83,2.17-1.62,4-2.34,5.74-3.31,7.86-5.08,12.07-1,21.86a2.86,2.86,0,0,1,0,2.5,2.36,2.36,0,0,1-1,1,2.61,2.61,0,0,1-1.34.33,3.64,3.64,0,0,1-2.72-1.42,17.69,17.69,0,0,1-3.58-6.34,26,26,0,0,1-1-7,62.47,62.47,0,0,0-.49-7.34,13.45,13.45,0,0,0-1.64-5.19,9.44,9.44,0,0,1-1.61-4.39,15.77,15.77,0,0,1,.75-5.09,18.89,18.89,0,0,0,.73-3.79,25.71,25.71,0,0,0-.29-5q-.09-.63-.15-1.23a.29.29,0,0,0-.51-.14l-.09.13a8.51,8.51,0,0,0-1.29,2.24,4.28,4.28,0,0,0-.18,2.21c.53,3.16-3.39,7.77-6.42,11.34l-.81,1a7.52,7.52,0,0,1-2.28,1.85,3,3,0,0,1-2.57.21c-1.84-.8-2.22-1.93-1.9-3.12a5.87,5.87,0,0,1,1.64-2.37,9.44,9.44,0,0,0,1.59-2,6.65,6.65,0,0,0,.89-2.87,16.19,16.19,0,0,0-.07-2.28,16.1,16.1,0,0,1,.16-4.85.26.26,0,0,0-.1-.28.27.27,0,0,0-.3,0c-1.15.57-2.28,1.1-3.34,1.59-5.81,2.73-8.92,4.19-11.54,11.72a2.49,2.49,0,0,1-1.44,1.57,2.21,2.21,0,0,1-1.22.07,2.39,2.39,0,0,1-1.05-.56,3,3,0,0,1-.9-2.4,13.63,13.63,0,0,1,1.23-5.5,20,20,0,0,1,3.08-4.52,48.52,48.52,0,0,0,3.45-4.38,10.2,10.2,0,0,0,1.68-3.67,7.37,7.37,0,0,1,1.37-3.41,12.36,12.36,0,0,1,3.09-2.56,14.51,14.51,0,0,0,2.3-1.74,18.78,18.78,0,0,0,2.33-2.92,25.92,25.92,0,0,1,11.78-10h0l0,0h0a8.69,8.69,0,0,0,4.88-4.47,13.43,13.43,0,0,0,.6-7.53,5.94,5.94,0,0,1,0-2.11v-.05c.1-6.77-3.78-11.14-8.21-16.13-1.38-1.55-2.81-3.16-4.2-4.92l0,0c-1.87-2-3.65-4.09-5.46-6.25-5-6-10.37-12.39-18.44-16.32a.26.26,0,0,0-.27,0,.27.27,0,0,0-.13.24c0,6.61-.77,7.2-4.38,10.06-.82.64-1.81,1.42-3,2.48a1.13,1.13,0,0,1-1.59-.11,1.12,1.12,0,0,1-.27-.77,23.22,23.22,0,0,1,1.52-8.7,10.52,10.52,0,0,1,1.67-2.67.29.29,0,0,0,0-.32.29.29,0,0,0-.28-.15,22.65,22.65,0,0,1-7-.31,42.2,42.2,0,0,1-11.38-4.47h0a1.09,1.09,0,0,1-.59-.9,1.11,1.11,0,0,1,1-1.21c2.31-.21,4.31-.45,6-.66,5.2-.64,7.15-.88,11.43,1.12a.26.26,0,0,0,.32-.07.27.27,0,0,0,0-.33,22.46,22.46,0,0,1-2.14-5,42,42,0,0,1-1.31-12.07v0a1.13,1.13,0,0,1,2.07-.66c1.34,2.09,2.43,3.67,3.34,5,2.67,3.87,3.84,5.57,4.21,9.26a.29.29,0,0,0,.22.25.3.3,0,0,0,.31-.15,22,22,0,0,1,2.09-3.23,42.07,42.07,0,0,1,9-8.2h0a1.09,1.09,0,0,1,1.09-.16,1.12,1.12,0,0,1,.65,1.45c-.89,2.27-1.53,4.11-2.06,5.64-2.18,6.21-2.65,7.56-9.51,12.28a.26.26,0,0,0-.12.25.27.27,0,0,0,.15.24Zm-.49-2.9c5.49-3.87,6-5.24,7.84-10.6l.4-1.13a.28.28,0,0,0-.1-.32.3.3,0,0,0-.35,0,32,32,0,0,0-4.73,4.81,20.71,20.71,0,0,0-3.5,6.92.29.29,0,0,0,.44.31ZM191,186.8c.12-6.72-.71-7.92-3.92-12.59-.22-.32-.45-.64-.68-1a.29.29,0,0,0-.33-.11.3.3,0,0,0-.19.29,31,31,0,0,0,1.1,6.66,20.31,20.31,0,0,0,3.52,6.91.28.28,0,0,0,.31.09.27.27,0,0,0,.19-.26Zm-2.58,2.79c-5.9-3.21-7.35-3-13-2.34l-1.18.14a.29.29,0,0,0-.24.24.27.27,0,0,0,.16.3,30.92,30.92,0,0,0,6.4,2.11,20.61,20.61,0,0,0,7.76.07.28.28,0,0,0,.23-.23.27.27,0,0,0-.15-.29ZM187.58,201c2.77-2.2,3.45-2.73,3.52-7.75A.28.28,0,0,0,191,193a.28.28,0,0,0-.29,0,8,8,0,0,0-3,3.55,15.41,15.41,0,0,0-1.12,4.64.28.28,0,0,0,.45.25l.58-.45Zm27.61,62a.69.69,0,0,1,1-.18.71.71,0,0,1,.18,1,20.57,20.57,0,0,1-2.56,3.19,15.89,15.89,0,0,1-2.57,2,.7.7,0,0,1-1-.21.71.71,0,0,1,.2-1,14.55,14.55,0,0,0,2.36-1.79,19.5,19.5,0,0,0,2.39-3Zm8.69-63.25c4,.43,4.92.53,9.05-3.6a.27.27,0,0,0,.07-.28.28.28,0,0,0-.21-.2,9.08,9.08,0,0,0-5.44.44,18,18,0,0,0-4.76,3,.28.28,0,0,0-.09.3.27.27,0,0,0,.24.19l1.14.12Zm-3.41-24c3,8.65,3.66,10.48,13.53,17.25a.29.29,0,0,0,.31,0,.28.28,0,0,0,.12-.3,31.24,31.24,0,0,0-5.82-12.42,50.9,50.9,0,0,0-9.14-8.89.28.28,0,0,0-.43.32c.54,1.5,1,2.83,1.43,4ZM243.39,171c-5.2,7.55-6.3,9.15-5.94,21.1a.27.27,0,0,0,.18.26.3.3,0,0,0,.31-.08,31.37,31.37,0,0,0,6.6-12,51.25,51.25,0,0,0,1.78-12.62.28.28,0,0,0-.19-.28.27.27,0,0,0-.32.11L243.39,171Zm18,19.31c-9.11-1.12-11-1.35-21.46,4.49a.28.28,0,0,0-.14.28.29.29,0,0,0,.21.24,31.29,31.29,0,0,0,13.72.28,51.05,51.05,0,0,0,12-4.25.28.28,0,0,0-.09-.53c-1.6-.18-3-.35-4.25-.51Zm-24.19,8.37c0,9,.94,9.7,5.5,13.3l2.14,1.71a.27.27,0,0,0,.31,0,.27.27,0,0,0,.15-.27,26.52,26.52,0,0,0-1.87-8.78,12.84,12.84,0,0,0-5.81-6.24.28.28,0,0,0-.28,0,.29.29,0,0,0-.14.25Zm-1.49,44.91a.28.28,0,0,0,0-.18,14.21,14.21,0,0,1-.53-1.4.27.27,0,0,0-.27-.2.29.29,0,0,0-.27.21l-.12.51c-.83,3.34-1.64,6.61-6.9,8.83a.68.68,0,0,1-.23.05l-.13,0a14.72,14.72,0,0,1-1.73.88h0a23.7,23.7,0,0,0-10.87,9.19A21.64,21.64,0,0,1,212,264.8a16.61,16.61,0,0,1-2.64,2,10.21,10.21,0,0,0-2.54,2.06,5.37,5.37,0,0,0-.94,2.44,12.32,12.32,0,0,1-2,4.51,51.44,51.44,0,0,1-3.61,4.59,17.82,17.82,0,0,0-2.75,4,11.29,11.29,0,0,0-1,4.13.27.27,0,0,0,.22.29.28.28,0,0,0,.33-.18c2.85-7.64,6.24-9.23,12.38-12.11,1.22-.57,2.56-1.2,4.19-2,3.37-1.71,5.08-5.5,6.72-9.16h0l.11-.24a10.88,10.88,0,0,1,2.24-3.49,10.51,10.51,0,0,1,2.79-1.85,10.15,10.15,0,0,0,4.28-4.56v0c.65-1.41,1.37-2.9,2.16-4.52v0l0,0,.5-1c1.38-2.82,2.21-1.94,3.23-6Zm.81,2.36a15.39,15.39,0,0,1-.59,1.55.28.28,0,0,0,.17.38c.78.25,1.53.47,2.25.68a.28.28,0,0,0,.3-.45,20.74,20.74,0,0,1-1.63-2.22.28.28,0,0,0-.5.06Zm-3.4-3.66,0-.1c.6-2.41,1.21-4.87,3.56-7l0,0c1.9-2.17,2.79-3.55,2.68-5a7.6,7.6,0,0,0-1.29-3.18.28.28,0,0,0-.32-.12.27.27,0,0,0-.2.28,6.18,6.18,0,0,1-1.89,5l-.26.25c-1.85,1.75-3.47,3.29-3.13,5.47a20.6,20.6,0,0,1,.26,4.28.27.27,0,0,0,.24.29.28.28,0,0,0,.31-.21Zm.87,9.3h0c-.26.53-.52,1.11-.78,1.68-.48,1-.93,2-1.43,3h0a49.14,49.14,0,0,0-2.84,7.56,27.67,27.67,0,0,0-.79,4.19v0c0,.68-.07,1.3-.14,1.87v0a39.72,39.72,0,0,0,.38,7,27.94,27.94,0,0,1,.31,5.4,21.57,21.57,0,0,1-.79,4.22,13.57,13.57,0,0,0-.68,4.36,7.22,7.22,0,0,0,1.28,3.37,15.86,15.86,0,0,1,1.95,6,67,67,0,0,1,.5,7.61,23.75,23.75,0,0,0,.86,6.42,15.4,15.4,0,0,0,3.14,5.55,1.47,1.47,0,0,0,1,.63.52.52,0,0,0,.23,0,.24.24,0,0,0,.08-.09.74.74,0,0,0-.06-.58c-4.49-10.66-2.59-15.17,1-23.6.72-1.71,1.51-3.59,2.31-5.67,1.83-4.75.14-10-1.49-15.1l-.11-.33a14.39,14.39,0,0,1-.88-5.25,13.83,13.83,0,0,1,1.07-4.15c1.7-4.46.17-8.6-1.55-13.25-.12-.35-.25-.7-.51-1.42a2.21,2.21,0,0,0-.59-.9,1.38,1.38,0,0,0-.23-.16h-.06a.28.28,0,0,0-.26,0,1.61,1.61,0,0,0-.39.56c-.18.35-.34.7-.51,1Zm-7.28,10.06-.17.09a8.43,8.43,0,0,0-2.23,1.45,9,9,0,0,0-1.77,2.82l-.11.24h0a31.78,31.78,0,0,1-4,7.12h0a11.15,11.15,0,0,0-2.22,8.58,18.53,18.53,0,0,1,.07,2.58,8.91,8.91,0,0,1-1.19,3.86,12.22,12.22,0,0,1-1.95,2.47,4.31,4.31,0,0,0-1.05,1.35c0,.11.12.27.62.49a1.07,1.07,0,0,0,.68-.18,5.08,5.08,0,0,0,1.56-1.27l.81-1c2.74-3.22,6.28-7.39,5.92-9.52a6.47,6.47,0,0,1,.27-3.32,10.82,10.82,0,0,1,1.62-2.85,10.69,10.69,0,0,0,1.58-2.6,9.65,9.65,0,0,0,.56-2.23v0a30.08,30.08,0,0,1,1-6.53c.11-.42.23-.83.36-1.25a.27.27,0,0,0-.09-.3.29.29,0,0,0-.31,0ZM240,274.45c1,2.74,3,4.32,4.71,5.66,2,1.54,3.62,2.82,3.56,5.21v.17c-.06,2.43-.12,5.19,1.63,5.94h0c2,.86,3,1.26,3.7,4.13.21.82.45,1.76.69,2.56a8.56,8.56,0,0,0,.43,1.3.18.18,0,0,0,.12.09H255a.28.28,0,0,0,.16-.11,1.39,1.39,0,0,0,.22-.78c0-1,.15-2.11.27-3.33.33-3.5.74-7.7-.24-9.71a4.38,4.38,0,0,0-2.13-1.88c-1.87-1-3.76-2-4-6.93a30.14,30.14,0,0,0-1.49-8.2,9.22,9.22,0,0,0-2.9-4.42v0a19.79,19.79,0,0,1-2.33-1.71c-.32-.28-.65-.58-1-.89a.29.29,0,0,0-.31-.06.3.3,0,0,0-.17.26,13.62,13.62,0,0,1-.9,4.77,11.37,11.37,0,0,0-.93,3.49,12.08,12.08,0,0,0,.77,4.43v0Z" transform="translate(0.5 -9.51)"/><text class="cls-5" transform="translate(106.81 110.96) rotate(-41.86)">R</text><text class="cls-5" transform="translate(122.73 96.58) rotate(-34.66)">U</text><text class="cls-5" transform="matrix(0.89, -0.46, 0.46, 0.89, 141.67, 83.46)">B</text><text class="cls-5" transform="translate(161.78 73.4) rotate(-22.09)">I</text><text class="cls-5" transform="translate(170.38 69.56) rotate(-16.86)">A</text><text class="cls-5" transform="translate(192.02 63.31) rotate(-11.86)"> </text><text class="cls-5" transform="translate(199.95 61.44) rotate(-7.58)">T</text><text class="cls-5" transform="translate(217.96 59.2) rotate(-3.13)">I</text><text class="cls-5" transform="translate(227.35 58.33) rotate(2.17)">N</text><text class="cls-5" transform="translate(250.97 59.26) rotate(9.46)">C</text><text class="cls-5" transform="translate(271.91 62.8) rotate(15.84)">T</text><text class="cls-5" transform="matrix(0.92, 0.39, -0.39, 0.92, 288.99, 67.38)">O</text><text class="cls-5" transform="matrix(0.86, 0.5, -0.5, 0.86, 311.73, 76.98)">R</text><text class="cls-5" transform="translate(330.26 88.06) rotate(35.25)">I</text><text class="cls-5" transform="matrix(0.76, 0.65, -0.65, 0.76, 338.15, 93.25)">A</text><text class="cls-6" transform="translate(107.41 157.88) rotate(-51.4)"> </text><text class="cls-6" transform="matrix(0.69, -0.72, 0.72, 0.69, 110.94, 152.78)">M</text><text class="cls-6" transform="matrix(0.78, -0.63, 0.63, 0.78, 127.28, 136.07)">A</text><text class="cls-6" transform="translate(140.82 125.08) rotate(-31.89)">D</text><text class="cls-6" transform="translate(157.9 114.41) rotate(-24.56)">D</text><text class="cls-6" transform="translate(176.28 106.1) rotate(-17.91)">E</text><text class="cls-6" transform="translate(191.78 101.03) rotate(-11.7)">R</text><text class="cls-6" transform="translate(209.21 97.64) rotate(-7.33)"> </text><text class="cls-6" transform="translate(215.53 96.82) rotate(-5.03)"> </text><text class="cls-6" transform="translate(221.9 96.26) rotate(-2.73)"> </text><text class="cls-7" transform="translate(228.21 95.87) rotate(0.48)">|</text><text class="cls-6" transform="translate(239.2 96.01) rotate(3.46)"> </text><text class="cls-6" transform="matrix(0.99, 0.1, -0.1, 0.99, 245.58, 96.39)"> </text><text class="cls-6" transform="matrix(0.98, 0.19, -0.19, 0.98, 251.75, 96.59)">M</text><text class="cls-6" transform="translate(274.65 101.3) rotate(18.39)">E</text><text class="cls-6" transform="matrix(0.91, 0.41, -0.41, 0.91, 290.11, 106.41)">E</text><text class="cls-6" transform="translate(305 113.09) rotate(30.46)">K</text><text class="cls-6" transform="translate(319.94 121.84) rotate(36.79)">R</text><text class="cls-6" transform="translate(334.08 132.39) rotate(43.13)">A</text><text class="cls-6" transform="matrix(0.65, 0.76, -0.76, 0.65, 346.86, 144.33)">P</text><text class="cls-8" transform="translate(193.95 357.68)">RO<tspan class="cls-9" x="34.61" y="0">O</tspan><tspan class="cls-10" x="52.91" y="0">T</tspan><tspan x="66" y="0">S</tspan></text><text class="cls-1" transform="matrix(0.54, 0.84, -0.84, 0.54, 62.74, 853.76)">O</text><text class="cls-1" transform="matrix(0.64, 0.77, -0.77, 0.64, 77.48, 876.38)">R</text><text class="cls-1" transform="translate(92.6 894.2) rotate(43.09)">A</text><text class="cls-1" transform="translate(109.64 910.11) rotate(35.8)">N</text><text class="cls-1" transform="translate(131.01 925.33) rotate(28.22)">G</text><text class="cls-1" transform="translate(153.03 936.94) rotate(21.29)">E</text><text class="cls-1" transform="matrix(0.96, 0.29, -0.29, 0.96, 172.85, 944.36)"> </text><text class="cls-1" transform="translate(181.01 946.82) rotate(14.11)">|</text><text class="cls-1" transform="translate(190.22 949.11) rotate(11.43)"> </text><text class="cls-1" transform="translate(199 951.13) rotate(6.7)">R</text><text class="cls-1" transform="translate(222.37 953.57) rotate(0.93)">E</text><text class="cls-1" transform="translate(243.96 953.81) rotate(-6.95)">D</text><text class="cls-1" transform="translate(269.77 950.21) rotate(-12.17)"> </text><text class="cls-1" transform="translate(278.08 948.42) rotate(-14.85)">|</text><text class="cls-1" transform="translate(287.27 945.95) rotate(-17.54)"> </text><text class="cls-1" transform="matrix(0.92, -0.4, 0.4, 0.92, 296.25, 943.6)">M</text><text class="cls-1" transform="matrix(0.85, -0.52, 0.52, 0.85, 324.2, 931.08)">A</text><text class="cls-1" transform="translate(343.95 918.91) rotate(-38.31)">R</text><text class="cls-1" transform="matrix(0.7, -0.72, 0.72, 0.7, 362.41, 904.32)">O</text><text class="cls-1" transform="translate(381.24 884.82) rotate(-53.71)">O</text><text class="cls-1" transform="translate(397.17 862.86) rotate(-61.61)">N</text><circle class="cls-3" cx="233.87" cy="756.78" r="233.37"/><text x="0.5" y="-9.51"/><path class="cls-4" d="M241.5,796.89c0,.06.05.13.07.2.32.86.64,1.71.92,2.55h0a12.44,12.44,0,0,0,3.66,5.17,17.14,17.14,0,0,0,1.77,1.31h0l.09.06h0a14.78,14.78,0,0,0,4.44,1.9,11.15,11.15,0,0,1,4.49,1.78,3.69,3.69,0,0,1,1.06,4.94v0a33.79,33.79,0,0,0-1.64,3.83.41.41,0,0,0,.12.32.33.33,0,0,0,.15.11h.11c.11,0,.23-.14.36-.36a25.86,25.86,0,0,0,3.08-7.1c.51-2.31.33-4.57-1.3-6.38-4.46-4.93-7.43-6.08-12.31-7.41h0l0,0h0l-1.53-.41c-1-.26-2.05-.54-3.2-.87a.24.24,0,0,0-.24.07.25.25,0,0,0-.05.25Zm-24.48-62a3.92,3.92,0,1,1-3.92,3.92,4,4,0,0,1,1.15-2.78A3.9,3.9,0,0,1,217,734.86Zm1.41,2.51a2,2,0,1,0,.58,1.41A2,2,0,0,0,218.43,737.37Zm-14.3,7.36c5.57,2.74,9.63,6.71,13.23,10.81a.23.23,0,0,0,.3.05.24.24,0,0,0,.11-.29,38.79,38.79,0,0,1-1.93-13.25,1,1,0,0,1,1-.95,1,1,0,0,1,1,1c-.16,14.15,5.79,20.85,10.9,26.6l.46.52a.25.25,0,0,0,.29.06.23.23,0,0,0,.13-.25,15.81,15.81,0,0,1,.35-6.13,24.73,24.73,0,0,1,4-8.07.24.24,0,0,0,0-.29.25.25,0,0,0-.28-.07c-1.34.52-2.65.38-4.85.14-1-.11-2.19-.24-3.68-.32a1,1,0,0,1-.91-1,1,1,0,0,1,.31-.66h0a22.1,22.1,0,0,1,6.74-4.84,10.37,10.37,0,0,1,2.66-.66.25.25,0,0,0,.21-.18.23.23,0,0,0-.1-.25c-6.56-4.77-7.29-6.84-9.77-13.94-.69-2-1.52-4.34-2.65-7.27a1,1,0,0,1,1.48-1.11h0c4.6,3.33,8.51,6.57,11.48,10.44a29.07,29.07,0,0,1,3.63,6.12.22.22,0,0,0,.26.14.25.25,0,0,0,.2-.23c.21-6.3,1.6-8.32,5.45-13.92,1.18-1.7,2.59-3.74,4.3-6.42a1,1,0,0,1,1.33-.29,1,1,0,0,1,.44.86h0c0,5.67-.28,10.72-1.65,15.4a28.66,28.66,0,0,1-3.81,8.13.24.24,0,0,0,0,.3.24.24,0,0,0,.3.05c6.77-3.49,9-3.21,16.29-2.31,2.12.26,4.66.57,7.69.84a1,1,0,0,1,.87,1,1,1,0,0,1-.51.77h0c-5,2.66-9.68,4.73-14.48,5.68a28.3,28.3,0,0,1-10.52.16.24.24,0,0,0-.26.13.24.24,0,0,0,.06.29,12.73,12.73,0,0,1,3.29,4.52c1.36,3.05,1.78,6.74,1.91,11a.94.94,0,0,1-.24.67,1,1,0,0,1-1.35.09c-1.55-1.36-2.83-2.36-3.89-3.2-4.34-3.43-5.36-4.24-5.43-11.83a.24.24,0,0,0-.16-.22.23.23,0,0,0-.27.07c-3.18,3.82-5.34,7.27-6.22,10.72s-.45,7.14,1.65,11.22l0,0a16.85,16.85,0,0,1,2.43,5.72.24.24,0,0,0,.17.19.25.25,0,0,0,.24-.07c.38-.39.79-.78,1.21-1.19l.23-.21c1.35-1.28,1-3.22.72-5.35-.1-.7-.21-1.42-.28-2.16h0a1,1,0,0,1,1.74-.65c2.67,3.64,4.08,5.69,4.23,7.67s-1,3.73-3.52,6.5a1.68,1.68,0,0,0-.34.58,5.85,5.85,0,0,0,.75,4.1,15.73,15.73,0,0,0,3.46,4.6,8.55,8.55,0,0,0,2.61,1.69h0c5.22,1.42,8.39,2.63,13.21,8,2.13,2.36,2.39,5.21,1.76,8.08a27.38,27.38,0,0,1-3.31,7.66,2.55,2.55,0,0,1-1.48,1.24,2.12,2.12,0,0,1-1.25,0,2.26,2.26,0,0,1-1-.64,2.36,2.36,0,0,1-.62-1.72,24.58,24.58,0,0,1,1.81-4.54l0,0a2,2,0,0,0-.5-2.62,9.52,9.52,0,0,0-3.69-1.42,8,8,0,0,1-.93-.24.24.24,0,0,0-.25.07.25.25,0,0,0,0,.26c.12.27.23.55.33.83a27.87,27.87,0,0,1,1.39,7.56c.18,3.11,1.32,3.73,2.45,4.35a5.31,5.31,0,0,1,2.64,2.47c1.07,2.2.7,6.09.39,9.33-.1,1-.19,2-.23,2.76a3,3,0,0,1-.59,1.77,2.18,2.18,0,0,1-1.08.75,2.1,2.1,0,0,1-1.24,0,2.14,2.14,0,0,1-1.12-.82,7,7,0,0,1-.63-1.68c-.2-.67-.42-1.51-.61-2.25a2.68,2.68,0,0,0-2.05-2.24h0c-2.71-1.15-2.63-4.21-2.57-6.9v-.14c0-1.09-1-1.92-2.31-2.91l-.76-.6a.26.26,0,0,0-.28,0,.27.27,0,0,0-.11.26,14.72,14.72,0,0,1-.37,8.46c-.72,1.86-1.39,3.46-2,4.92-2.84,6.73-4.35,10.34-.82,18.72a2.45,2.45,0,0,1,0,2.14,2,2,0,0,1-.84.86,2.2,2.2,0,0,1-1.15.28,3.12,3.12,0,0,1-2.33-1.22,15.16,15.16,0,0,1-3.06-5.42,22.25,22.25,0,0,1-.81-6,56.57,56.57,0,0,0-.42-6.29,11.84,11.84,0,0,0-1.41-4.45,8.08,8.08,0,0,1-1.38-3.76,13.68,13.68,0,0,1,.65-4.36,16.51,16.51,0,0,0,.62-3.24,21.93,21.93,0,0,0-.25-4.26c-.05-.35-.09-.7-.13-1a.25.25,0,0,0-.18-.21.23.23,0,0,0-.25.09l-.09.11a7.25,7.25,0,0,0-1.1,1.91,3.65,3.65,0,0,0-.15,1.9c.46,2.7-2.9,6.65-5.5,9.71l-.69.81a6.59,6.59,0,0,1-2,1.59,2.63,2.63,0,0,1-2.21.18c-1.58-.69-1.9-1.65-1.62-2.67a4.89,4.89,0,0,1,1.4-2,8.39,8.39,0,0,0,1.36-1.72,5.61,5.61,0,0,0,.76-2.45,14.65,14.65,0,0,0-.06-2,14,14,0,0,1,.14-4.15.24.24,0,0,0-.08-.24.25.25,0,0,0-.26,0c-1,.49-2,.94-2.86,1.37-5,2.33-7.64,3.58-9.89,10a2,2,0,0,1-1.23,1.34,1.77,1.77,0,0,1-1,.07,2.11,2.11,0,0,1-.91-.48,2.62,2.62,0,0,1-.77-2.05,11.73,11.73,0,0,1,1.06-4.72,16.86,16.86,0,0,1,2.64-3.87,41.37,41.37,0,0,0,2.95-3.75,8.65,8.65,0,0,0,1.44-3.14,6.32,6.32,0,0,1,1.18-2.93,10.38,10.38,0,0,1,2.64-2.19,12.65,12.65,0,0,0,2-1.49,16.3,16.3,0,0,0,2-2.5,24.87,24.87,0,0,1,4.63-5.23,24.39,24.39,0,0,1,5.46-3.3h0a7.47,7.47,0,0,0,4.18-3.82,11.47,11.47,0,0,0,.51-6.45,5.25,5.25,0,0,1,0-1.82v0c.08-5.8-3.24-9.54-7-13.81-1.18-1.33-2.41-2.71-3.6-4.21v0c-1.61-1.7-3.13-3.51-4.68-5.36-4.32-5.16-8.88-10.61-15.79-14a.26.26,0,0,0-.24,0,.22.22,0,0,0-.11.2c0,5.66-.66,6.17-3.75,8.61-.7.56-1.55,1.22-2.58,2.13a1,1,0,0,1-1.36-.09,1,1,0,0,1-.23-.67,19.89,19.89,0,0,1,1.3-7.45,9.18,9.18,0,0,1,1.43-2.29.23.23,0,0,0,0-.27.22.22,0,0,0-.24-.12,19.33,19.33,0,0,1-5.95-.27,36.3,36.3,0,0,1-9.74-3.83h0a1,1,0,0,1,.36-1.81c2-.17,3.69-.38,5.12-.56,4.45-.55,6.12-.75,9.78,1a.24.24,0,0,0,.28-.06.23.23,0,0,0,0-.28,19.43,19.43,0,0,1-1.84-4.32,36.38,36.38,0,0,1-1.12-10.34h0a1,1,0,0,1,.45-.86,1,1,0,0,1,1.33.29c1.14,1.79,2.08,3.15,2.86,4.27,2.28,3.32,3.28,4.78,3.6,7.93a.26.26,0,0,0,.19.22.24.24,0,0,0,.26-.13,20.15,20.15,0,0,1,1.79-2.77,36.15,36.15,0,0,1,7.72-7h0a1,1,0,0,1,.94-.13A1,1,0,0,1,214,729c-.76,1.95-1.31,3.53-1.77,4.84-1.86,5.32-2.26,6.47-8.14,10.51a.23.23,0,0,0-.1.22.22.22,0,0,0,.13.2Zm-.42-2.49c4.7-3.32,5.11-4.49,6.72-9.08.11-.3.22-.63.34-1a.25.25,0,0,0-.09-.28.24.24,0,0,0-.3,0,26.2,26.2,0,0,0-4,4.12,17.73,17.73,0,0,0-3,5.93.24.24,0,0,0,.1.26.22.22,0,0,0,.27,0Zm-3-.73c.09-5.76-.61-6.78-3.37-10.78l-.58-.85a.22.22,0,0,0-.27-.09.25.25,0,0,0-.17.24,26.92,26.92,0,0,0,.94,5.71,17.38,17.38,0,0,0,3,5.91.21.21,0,0,0,.26.08.23.23,0,0,0,.17-.22Zm-2.21,2.39c-5.06-2.75-6.3-2.6-11.12-2l-1,.12a.23.23,0,0,0-.21.2.24.24,0,0,0,.14.26,26.19,26.19,0,0,0,5.48,1.8,17.45,17.45,0,0,0,6.65.07.24.24,0,0,0,.07-.45Zm-.68,9.81c2.37-1.88,3-2.34,3-6.64a.23.23,0,0,0-.37-.2,6.83,6.83,0,0,0-2.57,3,13.45,13.45,0,0,0-.95,4,.24.24,0,0,0,.12.24.26.26,0,0,0,.27,0l.49-.38Zm23.64,53.13a.61.61,0,0,1,.84-.15.59.59,0,0,1,.15.83,16.63,16.63,0,0,1-2.19,2.73,13.1,13.1,0,0,1-2.2,1.68.6.6,0,0,1-.83-.17.59.59,0,0,1,.17-.83,12.7,12.7,0,0,0,2-1.54,15.83,15.83,0,0,0,2-2.55Zm7.45-54.17c3.42.36,4.22.45,7.75-3.09a.22.22,0,0,0,.06-.24.23.23,0,0,0-.17-.17,7.74,7.74,0,0,0-4.67.38,15.13,15.13,0,0,0-4.07,2.59.22.22,0,0,0-.08.25.23.23,0,0,0,.21.17l1,.11ZM226,732.08c2.59,7.41,3.14,9,11.59,14.77a.22.22,0,0,0,.27,0,.24.24,0,0,0,.1-.25A26.93,26.93,0,0,0,233,736a44,44,0,0,0-7.83-7.61.24.24,0,0,0-.29,0,.26.26,0,0,0-.09.28c.47,1.28.87,2.43,1.23,3.46ZM245.65,728c-4.46,6.46-5.4,7.83-5.09,18.07a.23.23,0,0,0,.16.22.23.23,0,0,0,.26-.07,26.74,26.74,0,0,0,5.65-10.3,43.38,43.38,0,0,0,1.53-10.81.23.23,0,0,0-.17-.24.22.22,0,0,0-.27.09c-.76,1.13-1.45,2.13-2.07,3ZM261,744.54c-7.8-1-9.45-1.16-18.38,3.84a.24.24,0,0,0-.12.24.26.26,0,0,0,.18.21,26.91,26.91,0,0,0,11.75.24,43.64,43.64,0,0,0,10.29-3.64.26.26,0,0,0,.14-.26.24.24,0,0,0-.22-.2c-1.37-.15-2.56-.3-3.64-.43Zm-20.71,7.16c0,7.68.8,8.31,4.71,11.4l1.83,1.46a.25.25,0,0,0,.26,0,.23.23,0,0,0,.13-.23,22.62,22.62,0,0,0-1.6-7.52,10.91,10.91,0,0,0-5-5.35.25.25,0,0,0-.24,0,.24.24,0,0,0-.12.21Zm-1.28,38.47a.26.26,0,0,0,0-.15,10.4,10.4,0,0,1-.45-1.2.24.24,0,0,0-.24-.17.23.23,0,0,0-.23.18c0,.14-.07.29-.1.43-.71,2.87-1.41,5.66-5.91,7.57a.71.71,0,0,1-.2,0,.25.25,0,0,0-.11,0,12,12,0,0,1-1.48.74h0a20.46,20.46,0,0,0-9.31,7.88,17.84,17.84,0,0,1-2.24,2.79,13.81,13.81,0,0,1-2.26,1.72,8.65,8.65,0,0,0-2.17,1.76,4.59,4.59,0,0,0-.81,2.1,10.46,10.46,0,0,1-1.73,3.86,44.74,44.74,0,0,1-3.09,3.93,15.12,15.12,0,0,0-2.35,3.43,9.59,9.59,0,0,0-.86,3.53.23.23,0,0,0,.19.25.24.24,0,0,0,.28-.15c2.44-6.55,5.35-7.91,10.61-10.38,1-.48,2.19-1,3.58-1.73,2.89-1.47,4.35-4.71,5.76-7.85h0l.09-.21a9.76,9.76,0,0,1,1.92-3,9.28,9.28,0,0,1,2.39-1.58,8.55,8.55,0,0,0,3.66-3.91h0c.55-1.21,1.17-2.49,1.84-3.87v0c.14-.29.29-.58.43-.89,1.18-2.41,1.89-1.66,2.77-5.11Zm.69,2a13.38,13.38,0,0,1-.5,1.33.27.27,0,0,0,0,.2.24.24,0,0,0,.15.13l1.93.58a.24.24,0,0,0,.25-.39,18.49,18.49,0,0,1-1.39-1.9.24.24,0,0,0-.23-.11.23.23,0,0,0-.2.16Zm-2.91-3.13,0-.09c.51-2.07,1-4.17,3.05-6l0,0c1.62-1.86,2.38-3,2.29-4.24A6.52,6.52,0,0,0,241.1,776a.22.22,0,0,0-.27-.1.22.22,0,0,0-.17.24,5.27,5.27,0,0,1-1.62,4.32l-.22.22c-1.59,1.5-3,2.82-2.69,4.68a18.13,18.13,0,0,1,.23,3.67.24.24,0,0,0,.2.25.24.24,0,0,0,.27-.18Zm.74,8h0c-.22.46-.44,1-.66,1.44-.41.88-.8,1.73-1.23,2.53v0a41.08,41.08,0,0,0-2.44,6.47,22.31,22.31,0,0,0-.67,3.59h0a15.29,15.29,0,0,1-.11,1.61v0a34.8,34.8,0,0,0,.33,6,23.25,23.25,0,0,1,.26,4.62,18.1,18.1,0,0,1-.67,3.62,11.77,11.77,0,0,0-.59,3.73,6.35,6.35,0,0,0,1.1,2.89,13.63,13.63,0,0,1,1.67,5.18,55.92,55.92,0,0,1,.43,6.51,20.58,20.58,0,0,0,.73,5.5,13.3,13.3,0,0,0,2.7,4.76,1.25,1.25,0,0,0,.88.53.36.36,0,0,0,.19,0,.2.2,0,0,0,.08-.08.61.61,0,0,0-.06-.49c-3.85-9.13-2.22-13,.83-20.22.61-1.46,1.29-3.07,2-4.85,1.56-4.08.12-8.58-1.28-12.94l-.1-.28a12.19,12.19,0,0,1-.75-4.5,11.88,11.88,0,0,1,.92-3.55c1.45-3.82.14-7.36-1.33-11.35l-.44-1.21a1.77,1.77,0,0,0-.51-.77.77.77,0,0,0-.19-.14l0,0h0a.24.24,0,0,0-.22,0,1.41,1.41,0,0,0-.34.48c-.15.3-.29.6-.44.89Zm-6.23,8.62-.15.08a7.25,7.25,0,0,0-1.91,1.24,7.65,7.65,0,0,0-1.51,2.41l-.09.21h0a27.82,27.82,0,0,1-3.39,6.1h0a9.57,9.57,0,0,0-1.9,7.34,15,15,0,0,1,.06,2.22,7.55,7.55,0,0,1-1,3.3,10.17,10.17,0,0,1-1.67,2.12,3.34,3.34,0,0,0-.89,1.16c0,.09.09.22.52.41.11,0,.33,0,.59-.15A4.43,4.43,0,0,0,221.3,831l.69-.82c2.35-2.76,5.38-6.33,5.07-8.16a5.62,5.62,0,0,1,.24-2.84,9,9,0,0,1,1.39-2.44,9.28,9.28,0,0,0,1.35-2.23,8.29,8.29,0,0,0,.48-1.91v0a24.81,24.81,0,0,1,.86-5.59c.09-.36.19-.71.3-1.07a.23.23,0,0,0-.07-.25.23.23,0,0,0-.27,0Zm11.42,11a10.77,10.77,0,0,0,4,4.84c1.69,1.32,3.1,2.42,3,4.47V826c0,2.08-.11,4.45,1.39,5.08h0c1.73.73,2.54,1.08,3.17,3.53.18.71.39,1.51.59,2.2a7.14,7.14,0,0,0,.37,1.11.19.19,0,0,0,.1.08h.11a.29.29,0,0,0,.13-.1,1.12,1.12,0,0,0,.19-.66c0-.83.13-1.81.23-2.86.29-3,.63-6.59-.21-8.31a3.74,3.74,0,0,0-1.82-1.62c-1.6-.86-3.21-1.74-3.45-5.93a26.15,26.15,0,0,0-1.28-7,8,8,0,0,0-2.48-3.79h0a16.41,16.41,0,0,1-2-1.47c-.28-.24-.56-.49-.83-.76a.23.23,0,0,0-.4.17,11.55,11.55,0,0,1-.78,4.09,10.21,10.21,0,0,0-.8,3,10.4,10.4,0,0,0,.67,3.79v0Z" transform="translate(0.5 -9.51)"/><text class="cls-11" transform="translate(67.43 682.93) rotate(-61.49) scale(1.05 1)"> </text><text class="cls-6" transform="matrix(0.54, -0.9, 0.85, 0.52, 72.29, 674.06)"> </text><text class="cls-11" transform="matrix(0.64, -0.83, 0.79, 0.61, 74.82, 668.27)">M</text><text class="cls-11" transform="matrix(0.77, -0.71, 0.68, 0.74, 95.9, 641.49)">A</text><text class="cls-11" transform="translate(115.89 622.99) rotate(-33.71) scale(1.05 1)">D</text><text class="cls-11" transform="matrix(0.95, -0.44, 0.42, 0.91, 140.36, 606.59)">D</text><text class="cls-11" transform="matrix(1, -0.3, 0.29, 0.96, 167.2, 594.39)">E</text><text class="cls-11" transform="matrix(1.04, -0.17, 0.16, 0.99, 190.05, 587.43)">R</text><text class="cls-11" transform="translate(216.18 583.57) rotate(-3.84) scale(1.05 1)"> </text><text class="cls-11" transform="translate(226.19 582.82) rotate(-0.22) scale(1.05 1)">|</text><text class="cls-11" transform="translate(237.23 582.73) rotate(2.29) scale(1.05 1)"> </text><text class="cls-11" transform="translate(247.04 582.38) rotate(8.81) scale(1.05 1)">M</text><text class="cls-11" transform="translate(280.74 587.93) rotate(17.5) scale(1.05 1)">E</text><text class="cls-11" transform="translate(303.54 595.07) rotate(24.74) scale(1.05 1)">E</text><text class="cls-11" transform="translate(325.3 604.94) rotate(32.44) scale(1.05 1)">K</text><text class="cls-11" transform="translate(347.56 619.03) rotate(40.58) scale(1.05 1)">R</text><text class="cls-11" transform="matrix(0.69, 0.79, -0.75, 0.66, 367.48, 635.94)">A</text><text class="cls-11" transform="matrix(0.56, 0.89, -0.84, 0.54, 385.38, 656.5)">P</text><text class="cls-12" transform="matrix(0.61, -0.79, 0.79, 0.61, 113.93, 699.72)"> </text><text class="cls-12" transform="translate(118.38 693.26) rotate(-46.89)">R</text><text class="cls-12" transform="matrix(0.79, -0.62, 0.62, 0.79, 133.46, 676.94)">U</text><text class="cls-12" transform="translate(152.63 661.85) rotate(-29.23)">B</text><text class="cls-12" transform="translate(173.2 650.74) rotate(-23.1)">I</text><text class="cls-12" transform="translate(181.41 646.83) rotate(-17.16)">A</text><text class="cls-12" transform="translate(202.78 640.58) rotate(-11.46)"> </text><text class="cls-12" transform="translate(210.46 638.79) rotate(-6.61)">T</text><text class="cls-12" transform="matrix(1, -0.03, 0.03, 1, 228.15, 636.92)">I</text><text class="cls-12" transform="translate(237.18 636.18) rotate(4.78)">N</text><text class="cls-12" transform="matrix(0.97, 0.24, -0.24, 0.97, 262.13, 638.32)">C</text><text class="cls-12" transform="translate(283.4 643.58) rotate(21.1)">T</text><text class="cls-12" transform="translate(299.61 649.44) rotate(29.2)">O</text><text class="cls-12" transform="translate(322.15 662.13) rotate(38.22)">R</text><text class="cls-12" transform="matrix(0.72, 0.7, -0.7, 0.72, 339.57, 676.26)">I</text><text class="cls-12" transform="translate(346.34 682.32) rotate(49.98)">A</text><text class="cls-13" transform="translate(198.59 876.31)">RO<tspan class="cls-14" x="29.64" y="0">O</tspan><tspan class="cls-15" x="45.32" y="0">T</tspan><tspan class="cls-16" x="56.53" y="0">S</tspan></text></svg>